<mxfile host="65bd71144e">
    <diagram id="62RhwQZApOVqAfoI6eoK" name="PÃ¡gina-1">
        <mxGraphModel dx="1483" dy="407" grid="1" gridSize="10" guides="1" tooltips="1" connect="1" arrows="1" fold="1" page="1" pageScale="1" pageWidth="827" pageHeight="1169" math="0" shadow="0">
            <root>
                <mxCell id="0"/>
                <mxCell id="1" parent="0"/>
                <mxCell id="4" value="" style="edgeStyle=none;html=1;" edge="1" parent="1" source="2" target="3">
                    <mxGeometry relative="1" as="geometry"/>
                </mxCell>
                <mxCell id="2" value="inicio" style="ellipse;whiteSpace=wrap;html=1;fillColor=#009999;" vertex="1" parent="1">
                    <mxGeometry x="240" y="10" width="120" height="80" as="geometry"/>
                </mxCell>
                <mxCell id="6" value="" style="edgeStyle=none;html=1;" edge="1" parent="1" source="3" target="5">
                    <mxGeometry relative="1" as="geometry"/>
                </mxCell>
                <mxCell id="3" value="x" style="shape=parallelogram;perimeter=parallelogramPerimeter;whiteSpace=wrap;html=1;fixedSize=1;fillColor=#99004D;" vertex="1" parent="1">
                    <mxGeometry x="240" y="160" width="120" height="60" as="geometry"/>
                </mxCell>
                <mxCell id="8" value="" style="edgeStyle=none;html=1;" edge="1" parent="1" source="5" target="7">
                    <mxGeometry relative="1" as="geometry"/>
                </mxCell>
                <mxCell id="5" value="R=(x% 2)" style="whiteSpace=wrap;html=1;fillColor=#999900;" vertex="1" parent="1">
                    <mxGeometry x="240" y="290" width="120" height="60" as="geometry"/>
                </mxCell>
                <mxCell id="7" value="R=0" style="rhombus;whiteSpace=wrap;html=1;fillColor=#660066;" vertex="1" parent="1">
                    <mxGeometry x="260" y="410" width="80" height="80" as="geometry"/>
                </mxCell>
                <mxCell id="9" value="" style="endArrow=none;html=1;" edge="1" parent="1">
                    <mxGeometry width="50" height="50" relative="1" as="geometry">
                        <mxPoint x="40" y="450" as="sourcePoint"/>
                        <mxPoint x="260" y="450" as="targetPoint"/>
                    </mxGeometry>
                </mxCell>
                <mxCell id="10" value="" style="endArrow=none;html=1;" edge="1" parent="1">
                    <mxGeometry width="50" height="50" relative="1" as="geometry">
                        <mxPoint x="340" y="449.5" as="sourcePoint"/>
                        <mxPoint x="560" y="449.5" as="targetPoint"/>
                    </mxGeometry>
                </mxCell>
                <mxCell id="11" value="" style="endArrow=none;html=1;" edge="1" parent="1">
                    <mxGeometry width="50" height="50" relative="1" as="geometry">
                        <mxPoint x="40" y="520" as="sourcePoint"/>
                        <mxPoint x="40" y="450" as="targetPoint"/>
                    </mxGeometry>
                </mxCell>
                <mxCell id="12" value="RTA= impar" style="rounded=0;whiteSpace=wrap;html=1;fillColor=#000033;" vertex="1" parent="1">
                    <mxGeometry x="-20" y="520" width="120" height="60" as="geometry"/>
                </mxCell>
                <mxCell id="13" value="" style="endArrow=none;html=1;" edge="1" parent="1">
                    <mxGeometry width="50" height="50" relative="1" as="geometry">
                        <mxPoint x="560" y="520" as="sourcePoint"/>
                        <mxPoint x="560" y="450" as="targetPoint"/>
                    </mxGeometry>
                </mxCell>
                <mxCell id="14" value="RTA=par" style="rounded=0;whiteSpace=wrap;html=1;fillColor=#FF0080;" vertex="1" parent="1">
                    <mxGeometry x="500" y="520" width="120" height="60" as="geometry"/>
                </mxCell>
                <mxCell id="15" value="" style="endArrow=none;html=1;" edge="1" parent="1">
                    <mxGeometry width="50" height="50" relative="1" as="geometry">
                        <mxPoint x="40" y="760" as="sourcePoint"/>
                        <mxPoint x="39.5" y="580" as="targetPoint"/>
                    </mxGeometry>
                </mxCell>
                <mxCell id="16" value="" style="endArrow=none;html=1;" edge="1" parent="1">
                    <mxGeometry width="50" height="50" relative="1" as="geometry">
                        <mxPoint x="560" y="760" as="sourcePoint"/>
                        <mxPoint x="559.5" y="580" as="targetPoint"/>
                    </mxGeometry>
                </mxCell>
                <mxCell id="17" value="" style="endArrow=none;html=1;" edge="1" parent="1">
                    <mxGeometry width="50" height="50" relative="1" as="geometry">
                        <mxPoint x="40" y="760" as="sourcePoint"/>
                        <mxPoint x="560" y="760" as="targetPoint"/>
                    </mxGeometry>
                </mxCell>
                <mxCell id="18" value="" style="endArrow=none;html=1;" edge="1" parent="1">
                    <mxGeometry width="50" height="50" relative="1" as="geometry">
                        <mxPoint x="300" y="840" as="sourcePoint"/>
                        <mxPoint x="300" y="760" as="targetPoint"/>
                    </mxGeometry>
                </mxCell>
                <mxCell id="19" value="RTA" style="shape=document;whiteSpace=wrap;html=1;boundedLbl=1;fillColor=#003333;" vertex="1" parent="1">
                    <mxGeometry x="240" y="840" width="120" height="80" as="geometry"/>
                </mxCell>
                <mxCell id="20" value="" style="endArrow=none;html=1;" edge="1" parent="1">
                    <mxGeometry width="50" height="50" relative="1" as="geometry">
                        <mxPoint x="299.5" y="990" as="sourcePoint"/>
                        <mxPoint x="299.5" y="910" as="targetPoint"/>
                    </mxGeometry>
                </mxCell>
                <mxCell id="21" value="fin" style="ellipse;whiteSpace=wrap;html=1;fillColor=#6666FF;" vertex="1" parent="1">
                    <mxGeometry x="250" y="980" width="120" height="80" as="geometry"/>
                </mxCell>
            </root>
        </mxGraphModel>
    </diagram>
</mxfile>